<?xml version="1.0" encoding="UTF-8"?><svg xmlns:svg="http://www.w3.org/2000/svg" xmlns="http://www.w3.org/2000/svg" xmlns:xlink="http://www.w3.org/1999/xlink" version="2.0" width="1200" height="1420" ><style >
svg {
  font-family: Helvetica, Arial, sans-serif;
  font-size: 11px;
}
rect {
  stroke-linecap: butt;
  stroke-width: 3;
  stroke: #fff;
/*  stroke-opacity: 1; */
}
rect:hover {
  stroke: #fff;
/*  stroke-opacity: 1; /*
}
polygon { fill: #000; }</style><defs ><polygon id="ahead" points="0 0, -12 4, -12 -4" /><filter id="glow" x="0" y="0" ><feGaussianBlur in="SourceAlpha" stdDeviation="2" result="blurred" /><feFlood flood-color="#fff" /><feComposite operator="in" in2="blurred" /><feComponentTransfer ><feFuncA type="linear" slope="10" intercept="0" /></feComponentTransfer><feMerge ><feMergeNode /><feMergeNode in="SourceGraphic" /></feMerge></filter></defs><g ><text x="300.0" y="20.0" text-anchor="middle" alignment-baseline="middle" fill="#000" >c2</text><text x="300.0" y="1020.0" text-anchor="middle" alignment-baseline="middle" fill="#aaa" >c2</text><text x="900.0" y="20.0" text-anchor="middle" alignment-baseline="middle" fill="#000" >n0</text><text x="900.0" y="1020.0" text-anchor="middle" alignment-baseline="middle" fill="#aaa" >n0</text></g><g ><line stroke="#ccc" x1="300.0" y1="30.0" x2="300.0" y2="1330.0" /><line stroke="#ccc" x1="900.0" y1="30.0" x2="900.0" y2="1330.0" /></g><g ><g transform="translate(300.0 50.0) rotate(1.9091524329963763) " ><rect x="0" y="-2.5" height="5" width="596.3332407921454" fill="#81BFFC" ><title >c2 → n0 {:echo "Please echo 96", :type "echo", :msg_id 1}</title></rect><use xlink:href="#ahead" x="600.3332407921454" y="0" /><text text-anchor="middle" x="300.1666203960727" y="-4" transform="" filter="url(#glow)" style="fill: #fff" >echo {:echo "Please echo 96"}</text><text text-anchor="middle" x="300.1666203960727" y="-4" transform="" >echo {:echo "Please echo 96"}</text></g><g transform="translate(900.0 90.0) rotate(178.0908475670036) " ><rect x="0" y="-2.5" height="5" width="596.3332407921454" fill="#81BFFC" ><title >n0 → c2 {:echo "Please echo 96", :in_reply_to 1, :msg_id 1, :type "echo_ok"}</title></rect><use xlink:href="#ahead" x="600.3332407921454" y="0" /><text text-anchor="middle" x="300.1666203960727" y="-4" transform="rotate(180 300.1666203960727 0)" filter="url(#glow)" style="fill: #fff" >echo_ok {:echo "Please echo 96"}</text><text text-anchor="middle" x="300.1666203960727" y="-4" transform="rotate(180 300.1666203960727 0)" >echo_ok {:echo "Please echo 96"}</text></g><g transform="translate(300.0 130.0) rotate(1.9091524329963763) " ><rect x="0" y="-2.5" height="5" width="596.3332407921454" fill="#81BFFC" ><title >c2 → n0 {:echo "Please echo 64", :type "echo", :msg_id 2}</title></rect><use xlink:href="#ahead" x="600.3332407921454" y="0" /><text text-anchor="middle" x="300.1666203960727" y="-4" transform="" filter="url(#glow)" style="fill: #fff" >echo {:echo "Please echo 64"}</text><text text-anchor="middle" x="300.1666203960727" y="-4" transform="" >echo {:echo "Please echo 64"}</text></g><g transform="translate(900.0 170.0) rotate(178.0908475670036) " ><rect x="0" y="-2.5" height="5" width="596.3332407921454" fill="#81BFFC" ><title >n0 → c2 {:echo "Please echo 64", :in_reply_to 2, :msg_id 2, :type "echo_ok"}</title></rect><use xlink:href="#ahead" x="600.3332407921454" y="0" /><text text-anchor="middle" x="300.1666203960727" y="-4" transform="rotate(180 300.1666203960727 0)" filter="url(#glow)" style="fill: #fff" >echo_ok {:echo "Please echo 64"}</text><text text-anchor="middle" x="300.1666203960727" y="-4" transform="rotate(180 300.1666203960727 0)" >echo_ok {:echo "Please echo 64"}</text></g><g transform="translate(300.0 210.0) rotate(1.9091524329963763) " ><rect x="0" y="-2.5" height="5" width="596.3332407921454" fill="#81BFFC" ><title >c2 → n0 {:echo "Please echo 36", :type "echo", :msg_id 3}</title></rect><use xlink:href="#ahead" x="600.3332407921454" y="0" /><text text-anchor="middle" x="300.1666203960727" y="-4" transform="" filter="url(#glow)" style="fill: #fff" >echo {:echo "Please echo 36"}</text><text text-anchor="middle" x="300.1666203960727" y="-4" transform="" >echo {:echo "Please echo 36"}</text></g><g transform="translate(900.0 250.0) rotate(178.0908475670036) " ><rect x="0" y="-2.5" height="5" width="596.3332407921454" fill="#81BFFC" ><title >n0 → c2 {:echo "Please echo 36", :in_reply_to 3, :msg_id 3, :type "echo_ok"}</title></rect><use xlink:href="#ahead" x="600.3332407921454" y="0" /><text text-anchor="middle" x="300.1666203960727" y="-4" transform="rotate(180 300.1666203960727 0)" filter="url(#glow)" style="fill: #fff" >echo_ok {:echo "Please echo 36"}</text><text text-anchor="middle" x="300.1666203960727" y="-4" transform="rotate(180 300.1666203960727 0)" >echo_ok {:echo "Please echo 36"}</text></g><g transform="translate(300.0 290.0) rotate(1.9091524329963763) " ><rect x="0" y="-2.5" height="5" width="596.3332407921454" fill="#81BFFC" ><title >c2 → n0 {:echo "Please echo 8", :type "echo", :msg_id 4}</title></rect><use xlink:href="#ahead" x="600.3332407921454" y="0" /><text text-anchor="middle" x="300.1666203960727" y="-4" transform="" filter="url(#glow)" style="fill: #fff" >echo {:echo "Please echo 8"}</text><text text-anchor="middle" x="300.1666203960727" y="-4" transform="" >echo {:echo "Please echo 8"}</text></g><g transform="translate(900.0 330.0) rotate(178.0908475670036) " ><rect x="0" y="-2.5" height="5" width="596.3332407921454" fill="#81BFFC" ><title >n0 → c2 {:echo "Please echo 8", :in_reply_to 4, :msg_id 4, :type "echo_ok"}</title></rect><use xlink:href="#ahead" x="600.3332407921454" y="0" /><text text-anchor="middle" x="300.1666203960727" y="-4" transform="rotate(180 300.1666203960727 0)" filter="url(#glow)" style="fill: #fff" >echo_ok {:echo "Please echo 8"}</text><text text-anchor="middle" x="300.1666203960727" y="-4" transform="rotate(180 300.1666203960727 0)" >echo_ok {:echo "Please echo 8"}</text></g><g transform="translate(300.0 370.0) rotate(1.9091524329963763) " ><rect x="0" y="-2.5" height="5" width="596.3332407921454" fill="#81BFFC" ><title >c2 → n0 {:echo "Please echo 72", :type "echo", :msg_id 5}</title></rect><use xlink:href="#ahead" x="600.3332407921454" y="0" /><text text-anchor="middle" x="300.1666203960727" y="-4" transform="" filter="url(#glow)" style="fill: #fff" >echo {:echo "Please echo 72"}</text><text text-anchor="middle" x="300.1666203960727" y="-4" transform="" >echo {:echo "Please echo 72"}</text></g><g transform="translate(900.0 410.0) rotate(178.0908475670036) " ><rect x="0" y="-2.5" height="5" width="596.3332407921454" fill="#81BFFC" ><title >n0 → c2 {:echo "Please echo 72", :in_reply_to 5, :msg_id 5, :type "echo_ok"}</title></rect><use xlink:href="#ahead" x="600.3332407921454" y="0" /><text text-anchor="middle" x="300.1666203960727" y="-4" transform="rotate(180 300.1666203960727 0)" filter="url(#glow)" style="fill: #fff" >echo_ok {:echo "Please echo 72"}</text><text text-anchor="middle" x="300.1666203960727" y="-4" transform="rotate(180 300.1666203960727 0)" >echo_ok {:echo "Please echo 72"}</text></g><g transform="translate(300.0 450.0) rotate(1.9091524329963763) " ><rect x="0" y="-2.5" height="5" width="596.3332407921454" fill="#81BFFC" ><title >c2 → n0 {:echo "Please echo 34", :type "echo", :msg_id 6}</title></rect><use xlink:href="#ahead" x="600.3332407921454" y="0" /><text text-anchor="middle" x="300.1666203960727" y="-4" transform="" filter="url(#glow)" style="fill: #fff" >echo {:echo "Please echo 34"}</text><text text-anchor="middle" x="300.1666203960727" y="-4" transform="" >echo {:echo "Please echo 34"}</text></g><g transform="translate(900.0 490.0) rotate(178.0908475670036) " ><rect x="0" y="-2.5" height="5" width="596.3332407921454" fill="#81BFFC" ><title >n0 → c2 {:echo "Please echo 34", :in_reply_to 6, :msg_id 6, :type "echo_ok"}</title></rect><use xlink:href="#ahead" x="600.3332407921454" y="0" /><text text-anchor="middle" x="300.1666203960727" y="-4" transform="rotate(180 300.1666203960727 0)" filter="url(#glow)" style="fill: #fff" >echo_ok {:echo "Please echo 34"}</text><text text-anchor="middle" x="300.1666203960727" y="-4" transform="rotate(180 300.1666203960727 0)" >echo_ok {:echo "Please echo 34"}</text></g><g transform="translate(300.0 530.0) rotate(1.9091524329963763) " ><rect x="0" y="-2.5" height="5" width="596.3332407921454" fill="#81BFFC" ><title >c2 → n0 {:echo "Please echo 113", :type "echo", :msg_id 7}</title></rect><use xlink:href="#ahead" x="600.3332407921454" y="0" /><text text-anchor="middle" x="300.1666203960727" y="-4" transform="" filter="url(#glow)" style="fill: #fff" >echo {:echo "Please echo 113"}</text><text text-anchor="middle" x="300.1666203960727" y="-4" transform="" >echo {:echo "Please echo 113"}</text></g><g transform="translate(900.0 570.0) rotate(178.0908475670036) " ><rect x="0" y="-2.5" height="5" width="596.3332407921454" fill="#81BFFC" ><title >n0 → c2 {:echo "Please echo 113", :in_reply_to 7, :msg_id 7, :type "echo_ok"}</title></rect><use xlink:href="#ahead" x="600.3332407921454" y="0" /><text text-anchor="middle" x="300.1666203960727" y="-4" transform="rotate(180 300.1666203960727 0)" filter="url(#glow)" style="fill: #fff" >echo_ok {:echo "Please echo 113"}</text><text text-anchor="middle" x="300.1666203960727" y="-4" transform="rotate(180 300.1666203960727 0)" >echo_ok {:echo "Please echo 113"}</text></g><g transform="translate(300.0 610.0) rotate(1.9091524329963763) " ><rect x="0" y="-2.5" height="5" width="596.3332407921454" fill="#81BFFC" ><title >c2 → n0 {:echo "Please echo 118", :type "echo", :msg_id 8}</title></rect><use xlink:href="#ahead" x="600.3332407921454" y="0" /><text text-anchor="middle" x="300.1666203960727" y="-4" transform="" filter="url(#glow)" style="fill: #fff" >echo {:echo "Please echo 118"}</text><text text-anchor="middle" x="300.1666203960727" y="-4" transform="" >echo {:echo "Please echo 118"}</text></g><g transform="translate(900.0 650.0) rotate(178.0908475670036) " ><rect x="0" y="-2.5" height="5" width="596.3332407921454" fill="#81BFFC" ><title >n0 → c2 {:echo "Please echo 118", :in_reply_to 8, :msg_id 8, :type "echo_ok"}</title></rect><use xlink:href="#ahead" x="600.3332407921454" y="0" /><text text-anchor="middle" x="300.1666203960727" y="-4" transform="rotate(180 300.1666203960727 0)" filter="url(#glow)" style="fill: #fff" >echo_ok {:echo "Please echo 118"}</text><text text-anchor="middle" x="300.1666203960727" y="-4" transform="rotate(180 300.1666203960727 0)" >echo_ok {:echo "Please echo 118"}</text></g><g transform="translate(300.0 690.0) rotate(1.9091524329963763) " ><rect x="0" y="-2.5" height="5" width="596.3332407921454" fill="#81BFFC" ><title >c2 → n0 {:echo "Please echo 77", :type "echo", :msg_id 9}</title></rect><use xlink:href="#ahead" x="600.3332407921454" y="0" /><text text-anchor="middle" x="300.1666203960727" y="-4" transform="" filter="url(#glow)" style="fill: #fff" >echo {:echo "Please echo 77"}</text><text text-anchor="middle" x="300.1666203960727" y="-4" transform="" >echo {:echo "Please echo 77"}</text></g><g transform="translate(900.0 730.0) rotate(178.0908475670036) " ><rect x="0" y="-2.5" height="5" width="596.3332407921454" fill="#81BFFC" ><title >n0 → c2 {:echo "Please echo 77", :in_reply_to 9, :msg_id 9, :type "echo_ok"}</title></rect><use xlink:href="#ahead" x="600.3332407921454" y="0" /><text text-anchor="middle" x="300.1666203960727" y="-4" transform="rotate(180 300.1666203960727 0)" filter="url(#glow)" style="fill: #fff" >echo_ok {:echo "Please echo 77"}</text><text text-anchor="middle" x="300.1666203960727" y="-4" transform="rotate(180 300.1666203960727 0)" >echo_ok {:echo "Please echo 77"}</text></g><g transform="translate(300.0 770.0) rotate(1.9091524329963763) " ><rect x="0" y="-2.5" height="5" width="596.3332407921454" fill="#81BFFC" ><title >c2 → n0 {:echo "Please echo 44", :type "echo", :msg_id 10}</title></rect><use xlink:href="#ahead" x="600.3332407921454" y="0" /><text text-anchor="middle" x="300.1666203960727" y="-4" transform="" filter="url(#glow)" style="fill: #fff" >echo {:echo "Please echo 44"}</text><text text-anchor="middle" x="300.1666203960727" y="-4" transform="" >echo {:echo "Please echo 44"}</text></g><g transform="translate(900.0 810.0) rotate(178.0908475670036) " ><rect x="0" y="-2.5" height="5" width="596.3332407921454" fill="#81BFFC" ><title >n0 → c2 {:echo "Please echo 44", :in_reply_to 10, :msg_id 10, :type "echo_ok"}</title></rect><use xlink:href="#ahead" x="600.3332407921454" y="0" /><text text-anchor="middle" x="300.1666203960727" y="-4" transform="rotate(180 300.1666203960727 0)" filter="url(#glow)" style="fill: #fff" >echo_ok {:echo "Please echo 44"}</text><text text-anchor="middle" x="300.1666203960727" y="-4" transform="rotate(180 300.1666203960727 0)" >echo_ok {:echo "Please echo 44"}</text></g><g transform="translate(300.0 850.0) rotate(1.9091524329963763) " ><rect x="0" y="-2.5" height="5" width="596.3332407921454" fill="#81BFFC" ><title >c2 → n0 {:echo "Please echo 52", :type "echo", :msg_id 11}</title></rect><use xlink:href="#ahead" x="600.3332407921454" y="0" /><text text-anchor="middle" x="300.1666203960727" y="-4" transform="" filter="url(#glow)" style="fill: #fff" >echo {:echo "Please echo 52"}</text><text text-anchor="middle" x="300.1666203960727" y="-4" transform="" >echo {:echo "Please echo 52"}</text></g><g transform="translate(900.0 890.0) rotate(178.0908475670036) " ><rect x="0" y="-2.5" height="5" width="596.3332407921454" fill="#81BFFC" ><title >n0 → c2 {:echo "Please echo 52", :in_reply_to 11, :msg_id 11, :type "echo_ok"}</title></rect><use xlink:href="#ahead" x="600.3332407921454" y="0" /><text text-anchor="middle" x="300.1666203960727" y="-4" transform="rotate(180 300.1666203960727 0)" filter="url(#glow)" style="fill: #fff" >echo_ok {:echo "Please echo 52"}</text><text text-anchor="middle" x="300.1666203960727" y="-4" transform="rotate(180 300.1666203960727 0)" >echo_ok {:echo "Please echo 52"}</text></g><g transform="translate(300.0 930.0) rotate(1.9091524329963763) " ><rect x="0" y="-2.5" height="5" width="596.3332407921454" fill="#81BFFC" ><title >c2 → n0 {:echo "Please echo 34", :type "echo", :msg_id 12}</title></rect><use xlink:href="#ahead" x="600.3332407921454" y="0" /><text text-anchor="middle" x="300.1666203960727" y="-4" transform="" filter="url(#glow)" style="fill: #fff" >echo {:echo "Please echo 34"}</text><text text-anchor="middle" x="300.1666203960727" y="-4" transform="" >echo {:echo "Please echo 34"}</text></g><g transform="translate(900.0 970.0) rotate(178.0908475670036) " ><rect x="0" y="-2.5" height="5" width="596.3332407921454" fill="#81BFFC" ><title >n0 → c2 {:echo "Please echo 34", :in_reply_to 12, :msg_id 12, :type "echo_ok"}</title></rect><use xlink:href="#ahead" x="600.3332407921454" y="0" /><text text-anchor="middle" x="300.1666203960727" y="-4" transform="rotate(180 300.1666203960727 0)" filter="url(#glow)" style="fill: #fff" >echo_ok {:echo "Please echo 34"}</text><text text-anchor="middle" x="300.1666203960727" y="-4" transform="rotate(180 300.1666203960727 0)" >echo_ok {:echo "Please echo 34"}</text></g><g transform="translate(300.0 1010.0) rotate(1.9091524329963763) " ><rect x="0" y="-2.5" height="5" width="596.3332407921454" fill="#81BFFC" ><title >c2 → n0 {:echo "Please echo 126", :type "echo", :msg_id 13}</title></rect><use xlink:href="#ahead" x="600.3332407921454" y="0" /><text text-anchor="middle" x="300.1666203960727" y="-4" transform="" filter="url(#glow)" style="fill: #fff" >echo {:echo "Please echo 126"}</text><text text-anchor="middle" x="300.1666203960727" y="-4" transform="" >echo {:echo "Please echo 126"}</text></g><g transform="translate(900.0 1050.0) rotate(178.0908475670036) " ><rect x="0" y="-2.5" height="5" width="596.3332407921454" fill="#81BFFC" ><title >n0 → c2 {:echo "Please echo 126", :in_reply_to 13, :msg_id 13, :type "echo_ok"}</title></rect><use xlink:href="#ahead" x="600.3332407921454" y="0" /><text text-anchor="middle" x="300.1666203960727" y="-4" transform="rotate(180 300.1666203960727 0)" filter="url(#glow)" style="fill: #fff" >echo_ok {:echo "Please echo 126"}</text><text text-anchor="middle" x="300.1666203960727" y="-4" transform="rotate(180 300.1666203960727 0)" >echo_ok {:echo "Please echo 126"}</text></g><g transform="translate(300.0 1090.0) rotate(1.9091524329963763) " ><rect x="0" y="-2.5" height="5" width="596.3332407921454" fill="#81BFFC" ><title >c2 → n0 {:echo "Please echo 87", :type "echo", :msg_id 14}</title></rect><use xlink:href="#ahead" x="600.3332407921454" y="0" /><text text-anchor="middle" x="300.1666203960727" y="-4" transform="" filter="url(#glow)" style="fill: #fff" >echo {:echo "Please echo 87"}</text><text text-anchor="middle" x="300.1666203960727" y="-4" transform="" >echo {:echo "Please echo 87"}</text></g><g transform="translate(900.0 1130.0) rotate(178.0908475670036) " ><rect x="0" y="-2.5" height="5" width="596.3332407921454" fill="#81BFFC" ><title >n0 → c2 {:echo "Please echo 87", :in_reply_to 14, :msg_id 14, :type "echo_ok"}</title></rect><use xlink:href="#ahead" x="600.3332407921454" y="0" /><text text-anchor="middle" x="300.1666203960727" y="-4" transform="rotate(180 300.1666203960727 0)" filter="url(#glow)" style="fill: #fff" >echo_ok {:echo "Please echo 87"}</text><text text-anchor="middle" x="300.1666203960727" y="-4" transform="rotate(180 300.1666203960727 0)" >echo_ok {:echo "Please echo 87"}</text></g><g transform="translate(300.0 1170.0) rotate(1.9091524329963763) " ><rect x="0" y="-2.5" height="5" width="596.3332407921454" fill="#81BFFC" ><title >c2 → n0 {:echo "Please echo 91", :type "echo", :msg_id 15}</title></rect><use xlink:href="#ahead" x="600.3332407921454" y="0" /><text text-anchor="middle" x="300.1666203960727" y="-4" transform="" filter="url(#glow)" style="fill: #fff" >echo {:echo "Please echo 91"}</text><text text-anchor="middle" x="300.1666203960727" y="-4" transform="" >echo {:echo "Please echo 91"}</text></g><g transform="translate(900.0 1210.0) rotate(178.0908475670036) " ><rect x="0" y="-2.5" height="5" width="596.3332407921454" fill="#81BFFC" ><title >n0 → c2 {:echo "Please echo 91", :in_reply_to 15, :msg_id 15, :type "echo_ok"}</title></rect><use xlink:href="#ahead" x="600.3332407921454" y="0" /><text text-anchor="middle" x="300.1666203960727" y="-4" transform="rotate(180 300.1666203960727 0)" filter="url(#glow)" style="fill: #fff" >echo_ok {:echo "Please echo 91"}</text><text text-anchor="middle" x="300.1666203960727" y="-4" transform="rotate(180 300.1666203960727 0)" >echo_ok {:echo "Please echo 91"}</text></g><g transform="translate(300.0 1250.0) rotate(1.9091524329963763) " ><rect x="0" y="-2.5" height="5" width="596.3332407921454" fill="#81BFFC" ><title >c2 → n0 {:echo "Please echo 110", :type "echo", :msg_id 16}</title></rect><use xlink:href="#ahead" x="600.3332407921454" y="0" /><text text-anchor="middle" x="300.1666203960727" y="-4" transform="" filter="url(#glow)" style="fill: #fff" >echo {:echo "Please echo 110"}</text><text text-anchor="middle" x="300.1666203960727" y="-4" transform="" >echo {:echo "Please echo 110"}</text></g><g transform="translate(900.0 1290.0) rotate(178.0908475670036) " ><rect x="0" y="-2.5" height="5" width="596.3332407921454" fill="#81BFFC" ><title >n0 → c2 {:echo "Please echo 110", :in_reply_to 16, :msg_id 16, :type "echo_ok"}</title></rect><use xlink:href="#ahead" x="600.3332407921454" y="0" /><text text-anchor="middle" x="300.1666203960727" y="-4" transform="rotate(180 300.1666203960727 0)" filter="url(#glow)" style="fill: #fff" >echo_ok {:echo "Please echo 110"}</text><text text-anchor="middle" x="300.1666203960727" y="-4" transform="rotate(180 300.1666203960727 0)" >echo_ok {:echo "Please echo 110"}</text></g></g></svg>